<svg xmlns="http://www.w3.org/2000/svg" width="125" height="36" viewBox="0 0 125 36" fill="none">
	<path
		d="M117.949 29.4431V30.3818H119.996V35.7171H121.122V30.4312H123.169V29.4925H117.949V29.4431ZM110.222 29.4431V35.7171H111.297V31.1228H111.348L114.316 35.7171H115.544V29.4431H114.469V34.0869L111.501 29.4925H110.222V29.4431ZM102.801 29.4431V35.7171H107.561V34.7785H103.978V32.9506H107.254V32.0614H103.978V30.4312H107.509V29.4925H102.801V29.4431ZM92.9754 29.4431V35.7171H94.0501V30.8758L95.8413 35.7171H96.7625L98.5536 30.8758V35.7171H99.6283V29.4431H98.0419L96.3019 34.3339L94.5107 29.4431H92.9754ZM85.5037 29.4431V35.7171H90.2631V34.7785H86.6807V32.9506H89.956V32.0614H86.6807V30.4312H90.2119V29.4925H85.5037V29.4431ZM79.7208 29.2949C77.7761 29.2949 76.599 30.777 76.599 32.6048C76.599 34.4327 77.7761 35.9147 79.7208 35.9147C80.5396 35.9147 81.1025 35.6183 81.6655 35.0255L81.819 35.7665H82.5355V32.4566H79.7719V33.2964H81.5119C81.4608 34.3833 80.8978 35.0255 79.7208 35.0255C78.2878 35.0255 77.7249 33.8893 77.7249 32.6542C77.7249 31.4192 78.2878 30.283 79.7208 30.283C80.4884 30.283 81.2561 30.6782 81.4096 31.518H82.5355C82.2796 30.0359 81.1025 29.2949 79.7208 29.2949ZM71.4302 30.53L72.4026 33.247H70.4067L71.4302 30.53ZM70.8161 29.4431L68.3085 35.7171H69.4855L70.0997 34.0375H72.7096L73.3237 35.7171H74.552L72.0443 29.4431H70.8161ZM60.7344 29.4431V35.7171H61.8091V31.1228H61.8603L64.8285 35.7171H66.0567V29.4431H64.9309V34.0869L61.9626 29.4925L60.7344 29.4431ZM55.3097 30.53L56.2821 33.247H54.2862L55.3097 30.53ZM54.7468 29.4431L52.2392 35.7171H53.4162L54.0303 34.0375H56.6403L57.2544 35.7171H58.4827L55.975 29.4431H54.7468ZM43.1298 29.4431V35.7171H44.2045V30.8758L45.9957 35.7171H46.9168L48.708 30.8758V35.7171H49.7827V29.4431H48.1962L46.4562 34.3339L44.6651 29.4431H43.1298ZM31.1546 29.4431V30.3818H33.2016V35.7171H34.3275V30.3818H36.3745V29.4431H31.1546ZM24.2969 29.4431V35.7171H29.0563V34.7785H25.474V32.9506H28.7493V32.0614H25.474V30.4312H29.0052V29.4925C29.0052 29.4431 24.2969 29.4431 24.2969 29.4431ZM18.9234 29.2949C17.7464 29.2949 16.5693 29.8877 16.5693 31.1228C16.5693 31.9626 17.0299 32.506 18.0534 32.7036C19.2817 33 19.5887 33.0988 19.947 33.1976C20.3052 33.2964 20.4587 33.5435 20.4587 33.9881C20.4587 34.5315 19.947 34.9267 19.077 34.9267C18.1046 34.9267 17.4393 34.4821 17.4393 33.5929H16.3134C16.3134 35.0255 17.3881 35.8159 19.0258 35.8159C20.5611 35.8159 21.5846 35.0749 21.5846 33.8399C21.5846 32.8518 20.817 32.3578 20.2028 32.2096L18.4629 31.765C17.8999 31.6168 17.644 31.3698 17.644 30.9252C17.644 30.3818 18.1558 30.0853 18.8211 30.0853C19.6911 30.0853 20.1517 30.4312 20.2028 31.1722H21.4311C21.4311 30.0359 20.3564 29.2949 18.9234 29.2949ZM11.2982 29.2949C10.1211 29.2949 8.94408 29.8877 8.94408 31.1228C8.94408 31.9626 9.40466 32.506 10.4282 32.7036C11.6564 33 11.9635 33.0988 12.3217 33.1976C12.6799 33.2964 12.8335 33.5435 12.8335 33.9881C12.8335 34.5315 12.3217 34.9267 11.4517 34.9267C10.4794 34.9267 9.81407 34.4821 9.81407 33.5929H8.68819C8.68819 35.0255 9.7629 35.8159 11.4005 35.8159C12.9358 35.8159 13.9593 35.0749 13.9593 33.8399C13.9593 32.8518 13.1917 32.3578 12.5776 32.2096L10.8376 31.765C10.2747 31.6168 10.0188 31.3698 10.0188 30.9252C10.0188 30.3818 10.5305 30.0853 11.1958 30.0853C12.0658 30.0853 12.5264 30.4312 12.5776 31.1722H13.7035C13.8058 30.0359 12.7311 29.2949 11.2982 29.2949ZM3.62175 30.53L4.5941 33.247H2.59822L3.62175 30.53ZM3.00763 29.4431L0.5 35.7171H1.67705L2.29117 34.0375H4.90115L5.51527 35.7171H6.7435L4.23586 29.4431H3.00763Z"
		fill="white" />
	<path
		d="M5.25939 2.27247V13.783C5.25939 18.1798 5.25939 20.1064 5.82233 20.6499C6.33409 21.1439 8.48349 21.3415 10.9399 21.3415C12.987 21.3415 16.774 21.4403 17.4905 20.3534C18.207 19.2666 18.2581 18.2786 18.6164 18.2786C18.9746 18.2786 18.8211 18.5256 18.7699 18.822C18.7187 19.1184 18.207 21.8355 18.1558 22.0331C18.1046 22.2307 17.8999 22.4777 17.3882 22.4777C14.727 22.4777 2.29117 22.3789 1.16529 22.3789C0.807057 22.3789 0.653528 22.3295 0.653528 22.1319C0.653528 22.0331 0.704704 21.9343 0.909409 21.9343C1.21647 21.9343 1.5747 21.8849 1.83058 21.8355C2.4447 21.7367 2.59822 21.0451 2.75175 20.2052C2.90528 18.9702 2.90528 16.5989 2.90528 13.6842V8.44767C2.90528 3.75452 2.85411 3.2111 2.85411 2.22307C2.85411 0.148205 1.31882 0.444614 0.755881 0.444614C0.653529 0.444614 0.5 0.395212 0.5 0.247008C0.5 0.0494016 0.653529 0 1.01176 0C2.39352 0 4.08233 0.098803 4.23586 0.098803C4.38939 0.098803 6.12938 0 7.05056 0C7.40879 0 7.56232 0.0494016 7.56232 0.247008C7.56232 0.345811 7.45996 0.444614 7.30644 0.444614C5.10586 0.444614 5.25939 1.53145 5.25939 2.27247Z"
		fill="white" />
	<path
		d="M53.8257 21.3411C56.6916 21.3411 57.6128 21.0941 58.1245 20.106C58.4316 19.5626 58.4827 19.118 58.5851 18.6734C58.6363 18.4264 58.6875 18.2288 58.841 18.2288C59.0457 18.2288 59.0457 18.377 59.0457 18.6734C59.0457 19.5132 58.6875 21.1929 58.4827 21.8351C58.278 22.5267 58.2269 22.5761 57.5616 22.5761C52.9045 22.5761 48.6057 22.4773 43.6416 22.4773C43.2834 22.4773 43.1299 22.4279 43.1299 22.2797C43.1299 22.1315 43.1811 22.0327 43.4881 21.5387C47.6334 15.6599 53.2116 10.0281 56.9986 4.14933H50.1922C48.5034 4.14933 47.9404 4.14933 46.9681 4.49514C45.9958 4.84096 44.921 6.02659 44.7675 6.76762C44.6652 7.16283 44.5628 7.26163 44.4605 7.26163C44.3581 7.26163 44.3069 7.11343 44.3069 6.91582C44.3069 6.57001 44.7163 4.34694 44.8187 3.55652C44.8699 3.1613 44.9211 3.0625 45.1258 3.0625C45.4328 3.0625 45.5352 3.1613 46.354 3.2107C49.3734 3.30951 58.9945 3.1613 58.9945 3.1613C59.4039 3.1613 59.6086 3.1613 59.6086 3.35891C59.6086 3.45771 59.5574 3.65532 59.4039 3.85292C55.2586 9.92932 50.704 15.5611 46.5075 21.4893L53.8257 21.3411Z"
		fill="white" />
	<path
		d="M85.5551 10.5227C85.5551 6.52118 85.5551 5.78016 85.5039 4.94033C85.4527 4.10051 85.1969 3.65589 84.2245 3.45829C84.0198 3.40888 83.7127 3.40888 83.4569 3.40888C83.2522 3.40888 83.0986 3.35948 83.0986 3.21128C83.0986 3.06307 83.201 3.01367 83.4569 3.01367C84.7874 3.01367 86.7321 3.11247 86.7833 3.11247C87.0904 3.11247 89.2398 3.01367 90.1098 3.01367C91.8498 3.01367 93.7945 3.16188 95.2786 4.14991C95.8927 4.59452 97.1721 5.78016 97.1721 7.85502C97.1721 9.53468 96.3021 11.6589 93.8456 13.635C96.1486 16.3521 98.0421 18.6246 99.6797 20.2548C101.215 21.7369 102.136 21.9839 103.006 22.1321C103.211 22.1815 103.876 22.1815 103.979 22.1815C104.234 22.1815 104.337 22.2803 104.337 22.3791C104.337 22.5273 104.234 22.5767 103.774 22.5767H101.573C100.089 22.5767 99.9356 22.4779 99.2191 22.2309C97.8886 21.6875 96.9674 20.3042 95.3297 18.2788C94.1015 16.7967 92.8221 15.1665 92.3104 14.5242C92.208 14.4254 92.1056 14.3266 91.9521 14.3266L87.6533 14.2772C87.551 14.2772 87.4998 14.3266 87.4998 14.4254V14.87C87.4998 17.2907 87.4998 19.5138 87.6533 20.65C87.7557 21.391 87.858 21.9839 88.8815 22.1321C89.1886 22.1815 89.5468 22.1815 89.8027 22.1815C90.1098 22.1815 90.2121 22.2803 90.2121 22.3791C90.2121 22.5273 90.1098 22.6261 89.7515 22.6261C88.1139 22.6261 86.8345 22.5273 86.7321 22.5273C86.2204 22.5273 84.8386 22.6261 83.9686 22.6261C83.6616 22.6261 83.508 22.5767 83.508 22.3791C83.508 22.2803 83.7127 22.1815 83.8663 22.1815C84.071 22.1815 84.3269 22.1815 84.5827 22.1321C85.1457 22.0333 85.2992 21.6875 85.4016 20.9958C85.5551 19.909 85.5039 17.3895 85.5039 15.1171L85.5551 10.5227ZM87.6533 12.6964C87.6533 12.8446 87.7045 12.9928 87.8068 13.0422C88.2674 13.2398 89.6492 13.4374 90.9286 13.4374C91.6451 13.4374 92.5662 13.388 93.2827 12.9928C94.3574 12.4 95.0227 11.0661 95.0227 9.13946C95.0227 5.82956 92.9756 4.0017 89.8539 4.0017C88.9839 4.0017 88.2163 4.0511 87.8068 4.14991C87.7045 4.19931 87.6021 4.24871 87.6021 4.39692L87.6533 12.6964Z"
		fill="white" />
	<path
		d="M30.5917 2.51947C30.5917 2.47007 30.4893 2.47007 30.4893 2.51947L23.7341 19.563C23.2223 20.8474 22.6594 21.8355 21.3288 21.9837C21.1241 22.0331 20.8682 22.0331 20.7147 22.0331C20.4588 22.0331 20.3564 22.1319 20.3564 22.2307C20.3564 22.3789 20.51 22.4283 20.8682 22.4283C22.1988 22.4283 23.5805 22.3295 23.8876 22.3295C24.2458 22.3295 25.6788 22.4283 26.3441 22.4283C26.5488 22.4283 26.8046 22.3789 26.8046 22.2307C26.8046 22.1319 26.7023 22.0331 26.4464 22.0331H26.2417C25.5252 21.9837 25.0135 21.7367 25.0135 21.1933C25.0135 20.6992 25.2694 19.9088 25.5764 19.069L27.1629 14.6229H33.5599L36.0675 21.2427C36.2722 21.6873 36.0675 21.8355 35.9652 21.9343C35.8628 21.9837 35.7605 22.0331 35.7605 22.1319C35.7605 22.2801 35.9652 22.3295 36.5281 22.3295C38.6264 22.3789 40.7246 22.3789 41.0316 22.3789C41.3899 22.3789 41.4922 22.3295 41.4922 22.1813C41.4922 22.0331 41.3387 21.9837 41.134 21.9837C40.9293 21.9837 40.4687 21.9837 40.0593 21.8355C39.5987 21.6873 38.7287 21.2921 37.654 18.8714C36.0675 15.2157 31.3082 4.14972 30.5917 2.51947ZM27.5211 13.6348L30.2335 5.87878L33.2017 13.6348H27.5211Z"
		fill="white" />
	<path
		d="M70.9696 2.51947C70.9696 2.47007 70.8673 2.47007 70.8673 2.51947L64.112 19.563C63.6002 20.8474 63.0373 21.8355 61.7067 21.9837C61.502 22.0331 61.2461 22.0331 61.0926 22.0331C60.8367 22.0331 60.7344 22.1319 60.7344 22.2307C60.7344 22.3789 60.8879 22.4283 61.2461 22.4283C62.5767 22.4283 63.9585 22.3295 64.2655 22.3295C64.6238 22.3295 66.0567 22.4283 66.722 22.4283C66.9267 22.4283 67.1826 22.3789 67.1826 22.2307C67.1826 22.1319 67.0802 22.0331 66.8243 22.0331H66.6196C65.9543 22.0331 65.4426 21.7861 65.4426 21.2427C65.4426 20.7486 65.6985 19.9582 66.0055 19.1184L67.592 14.6723H73.989L76.4966 21.3415C76.7014 21.7861 76.4966 21.9343 76.3943 22.0331C76.2919 22.0825 76.1896 22.1319 76.1896 22.2307C76.1896 22.3789 76.3943 22.4283 76.9572 22.4283C79.0555 22.4777 81.1025 22.4777 81.4607 22.4777C81.819 22.4777 81.9213 22.4283 81.9213 22.2801C81.9213 22.1319 81.7678 22.0825 81.5631 22.0825C81.3584 22.0825 80.8978 22.0825 80.4884 21.9343C80.0278 21.7861 79.1578 21.3909 78.1343 18.9702C76.4455 15.2157 71.6861 4.14972 70.9696 2.51947ZM67.899 13.6348L70.6114 5.87878L73.5796 13.6348H67.899Z"
		fill="white" />
	<path
		d="M121.992 5.97834C119.178 2.71784 114.879 3.06365 112.525 3.06365C111.041 3.06365 109.557 3.06365 109.403 3.06365C109.301 3.06365 107.407 2.96484 106.281 2.96484C106.026 2.96484 105.872 3.01425 105.872 3.21185C105.872 3.31065 106.026 3.40946 106.128 3.40946C106.333 3.40946 106.998 3.45886 107.151 3.45886C107.919 3.65647 108.277 4.10108 108.328 4.94091C108.38 5.73133 108.226 6.42295 108.226 10.4739V14.9694C108.226 17.4395 108.431 19.5144 108.277 20.6506C108.175 21.3422 107.817 21.7868 107.356 21.8362C106.896 21.8856 106.333 21.8856 106.128 21.8856C105.923 21.8856 105.821 22.2315 105.821 22.3303C105.821 22.4785 105.974 22.4291 106.179 22.4291H111.297C112.525 22.4291 113.6 22.3797 114.623 22.3797C118.666 22.3797 120.662 20.6506 121.839 19.4156C123.272 17.9829 124.5 15.2658 124.5 12.4499C124.5 9.48585 123.17 7.36158 121.992 5.97834ZM113.446 21.5398C110.683 21.5398 110.478 21.1446 110.478 20.7V4.7433C110.478 3.90347 112.32 4.00228 113.446 4.00228C114.572 4.00228 121.89 4.39749 122.146 12.697C122.402 20.947 116.21 21.5398 113.446 21.5398Z"
		fill="white" />
</svg>